<?xml version="1.0" encoding="utf-8"?>
<!-- Generator: Adobe Illustrator 24.3.0, SVG Export Plug-In . SVG Version: 6.00 Build 0)  -->
<svg version="1.1" id="Layer_1" xmlns="http://www.w3.org/2000/svg" xmlns:xlink="http://www.w3.org/1999/xlink" x="0px" y="0px"
	 viewBox="0 0 1607 1607" style="enable-background:new 0 0 1607 1607;" xml:space="preserve">
<style type="text/css">
	.st0{fill:#FFFFFF;}
</style>
<g>
	<g>
		<path class="st0" d="M-2.5,639.2c0-214.7,0-429.4,0-644.2c537.3,0,1074.7,0,1612,0c0,214.7,0,429.4,0,644.2c-22.2,0-44.3,0-66.3,0
			c4.3-34.8,8.1-67.4,12.4-100c1.9-14.2-2.6-22.4-16.1-29.2c-135.6-68.3-278.7-114.3-427.3-143.8c-21.7-4.3-43.8-6.9-67.2-10.5
			c0,43.4-0.1,83.6,0,123.8c0.1,25-9.2,45.8-27,63.1c-24.8,24-56,35.3-89.1,39.6c-52.7,6.9-97,25.8-123.8,74.6
			c-0.1,0.3-0.9,0.2-1.5,0.3c-0.8-0.4-2.1-0.7-2.5-1.4c-25.9-47.3-68.8-65.8-119.7-73.2c-20.9-3-42.1-9.6-61.3-18.5
			c-38.4-17.8-59.9-47.8-58.1-92c0.8-19.3,0.1-38.7,0.1-58.1c0-19.7,0-39.5,0-59.6c-8.6,1.7-15.2,3.3-21.9,4.4
			c-157.3,24.7-307.3,73-451.3,140.4c-42.9,20.1-42.7,20.5-35.7,68.5c3.4,23.5,6.6,47.1,10,71.6C40.3,639.2,18.9,639.2-2.5,639.2z
			 M803.1,35.1c-61.1,73.2-133,104.1-225.6,57.5c0,131.4-0.1,261.3,0.1,391.1c0,22.5,10.1,42.2,29.1,52.9c22,12.3,46,23.8,70.6,28.4
			c49,9.2,95.3,21,126.1,66.2c29.5-42.3,71.7-56.3,117.9-64.6c22.4-4,45-11.1,65.3-21.1c29-14.2,43.1-39.2,42.9-72.7
			c-0.5-122-0.2-244-0.2-366c0-4.4,0-8.9,0-14C931.6,132.7,881.1,119.4,803.1,35.1z"/>
		<path class="st0" d="M1609.5,1141.9c0,155,0,310,0,465.1c-537.3,0-1074.7,0-1612,0c0-155,0-310,0-465.1c29.1,3.1,58.3,6,87.4,9.2
			c72.3,8,144.7,15.9,217,24.4c5.9,0.7,13.1,4.3,16.7,8.9c130.9,168.6,285.2,310.2,474.3,412c7.3,3.9,12.1,4.2,19.6,0.1
			c188.5-100.8,341.8-242,472.8-409c4.8-6.1,13.7-11.3,21.3-12.3c49.3-6.4,98.8-11.7,148.2-17.1
			C1506.4,1152.7,1558,1147.4,1609.5,1141.9z"/>
		<path d="M-2.5,714.6c0-1,0-2.1,0-3.1c6.8,0.3,13.6,0.9,20.4,0.9c523.8,0,1047.5,0,1571.3,0c6.8,0,13.6-0.6,20.4-0.9
			c0,1,0,2.1,0,3.1c-1,6.6-2.9,13.2-3,19.9c-0.2,106.2-0.2,212.3,0,318.5c0,6.6,1.9,13.2,3,19.9c0,1,0,2.1,0,3.1
			c-5.2-0.1-10.5-0.3-15.7-0.3c-523.7,0-1047.4,0-1571.1,0c-8.4,0-16.8,0.2-25.2,0.3c0-1,0-2.1,0-3.1c1-6.6,2.9-13.2,3-19.9
			c0.2-106.2,0.2-212.3,0-318.5C0.4,727.8-1.5,721.2-2.5,714.6z M852,970.9c0-26.6,0-53.1,0-83.7c17.4,40,32.9,76,48.9,111.8
			c1.9,4.3,5.9,10.4,9.4,10.7c13.8,1.2,27.8,0.5,44.8,0.5c-7.4-14.5,9.4-33.4-15.2-39.1c0-54.8,0-109.7,0-164.4
			c14.5-5.5,16.5-12.7,10.8-38.3c-20.6,0-41.2,0-64.2,0c6.3,13.5-9.8,32,14.3,38c0,26.8,0,53.6,0,80.4c-3.6-3.1-5.1-6.8-6.6-10.4
			c-13.5-32.3-26.8-64.7-40.8-96.8c-2.1-4.9-7.4-11.3-11.8-11.9c-13.3-1.6-26.9-0.6-41.2-0.6c0,12.6,0,23.3,0,29.8
			c5.8,7.2,12.4,11.7,12.5,16.2c0.7,52.7,0.5,105.5,0.5,157.9c-15.3,4.9-17.7,14-11.3,38.5c20.1,0,40.4,0,60.4,0
			C867.8,982.3,866,976.1,852,970.9z M164.2,1009.1c24.3,0,44.9,0,67.5,0c-5-14.4,9.6-33.2-14-38.5c0-21.2,0-41.5,0-62.6
			c13.6,0,26.5,0,40.1,0c0,21.4,0,42.2,0,63.7c-3.8,1.1-8.1,2.3-12.2,3.5c0,11.7,0,22.5,0,34.2c21.5,0,42.1,0,63.5,0
			c0-11.8,0-22.6,0-34.1c-4.3-1.4-8.5-2.7-12.3-4c0-55.9,0-110.7,0-165.3c4.8-1.8,8.9-3.4,11.8-4.5c0-12.2,0-22.9,0-33.4
			c-21.6,0-41.8,0-65.4,0c6.9,13.7-10.3,32.8,14.4,38c0,21.7,0,42.3,0,63.1c-13.9,0-26.7,0-40.7,0c0-16.2,0.6-31.3-0.2-46.4
			c-0.6-11.2,0.3-20.3,12.8-21.3c0-12.1,0-22.8,0-33.1c-21.9,0-42.5,0-63.4,0c0,12.1,0,22.8,0,33.4c4.7,1.5,8.5,2.8,12.2,4
			c0,55.6,0,110.4,0,165.1C154.2,977.6,169.9,995.7,164.2,1009.1z M506.4,971.3c-15.2,4.7-17.7,14.2-10.6,39.1
			c33.7,0,67.8,0.3,101.8-0.2c10.6-0.1,33.2-24.8,33.2-35.5c0.2-57.1,0.1-114.1,0-171.2c0-10.6-22-35.9-32.5-36.1
			c-34.5-0.6-69-0.2-103.1-0.2c-5.6,27.7-3.9,33.6,11.2,39.7C506.4,861.3,506.4,915.7,506.4,971.3z M382.1,948.2c14.7,0,25,0,36.4,0
			c1,8.3,5.5,19.6,2.2,22.9c-12.7,12.3-2.9,25.3-6.4,38.2c21.1,0,40.1,0,59.6,0c0-12,0-22.9,0-33.7c-1.5,0.7-3,1.3-4.6,2
			c-3.8-6.4-9.6-12.3-11-19.2c-11.3-53.2-21.9-106.6-32.6-160c-6.6-33.1-6.5-33.2-40.8-30.7c-1,0.1-1.9,0.9-3.5,1.7
			c-1,4.6-2.2,9.7-3.2,14.8C367,842.1,356,900.2,344.3,958.2c-1.4,7-7,13.2-10.7,19.8c-1.3-0.6-2.6-1.2-3.9-1.8
			c0,10.8,0,21.6,0,33.1c19.9,0,39,0,60.7,0C387.5,988.4,384.9,969.1,382.1,948.2z M1118,976.9c-1.6,0.2-3.1,0.4-4.7,0.6
			c-3.7-6.5-9.5-12.5-10.9-19.4c-12.5-58.8-25.1-117.6-35.8-176.7c-3.3-18.1-14.4-13.5-25.1-14.3c-10.5-0.8-16.7,0.8-19,13.9
			c-10.4,59.2-22.1,118.2-34,177.1c-1.4,7.1-7.1,13.3-10.8,19.8c-1.1-0.6-2.2-1.2-3.3-1.8c0,11.2,0,22.3,0,33.3c20,0,38.6,0,58.6,0
			c0-11.3,4.2-25-0.9-31.2c-9.4-11.4-4.5-20-2.2-29.9c11.1,0,21.4,0,32.4,0c1.2,7.9,5.8,18.5,2.7,21.6c-12.5,12.6-3.9,26-6.4,39.3
			c20.9,0,39.9,0,59.4,0C1118,997.6,1118,987.2,1118,976.9z M1259.9,845.3c0-16,0.1-30.1-0.1-44.2c0-2.5-0.3-5.7-1.9-7.3
			c-13.1-13.4-23.4-31.7-47.3-26.9c-7.1,1.4-14.7,0.9-21.9,0.1c-16.3-1.9-28.7,2.9-39.8,15.8c-7.6,8.9-12.4,16.8-11.8,28.8
			c1,19.3,0.1,38.7,0.3,58c0.1,15,22.4,37.3,37.5,37.5c15.6,0.2,31.1,0,46.8,0c0,22.8,0,43.5,0,65.1c-15.7,0-30.6,0-46.2,0
			c-0.5-8.9-1-17.1-1.4-25.9c-12.5,0-24.2,0-35.5,0c-9.4,39.1,16.9,70.8,56.8,64.2c4.6-0.8,9.5-0.7,14.1,0
			c16,2.4,27.5-3.6,38.4-15.4c8.4-9.2,13-17.6,12.3-30.2c-1.1-18.2-0.2-36.6-0.3-54.9c-0.1-16.3-22.9-39.3-39.3-39.5
			c-15-0.2-30,0-45.1,0c0-23.1,0-43.9,0-65.6c15.6,0,30.6,0,47.7,0c0,14,0,27.2,0,40.4C1236.3,845.3,1247.1,845.3,1259.9,845.3z
			 M146.2,845.3c0-15.8,4.3-32.7-1.2-45.3c-5.8-13.1-19.4-27.3-32.6-31.6c-16.6-5.4-36.3-1.6-54.6-1.1c-3.7,0.1-7.8,2.5-10.9,4.9
			c-16.3,12.8-27.1,27.7-23.3,50.7c2.2,13.8,0.4,28.2,0.4,42.3c0,21.5,20.7,41.9,42.7,41.9c13.9,0,27.8,0,41.9,0
			c0,23.1,0,43.8,0,64.6c-16.2,0-31.5,0-47.8,0c0-9.2,0-16.9,0-25.2c-12.7,0-24.3,0-38.5,0c1.9,14.3,0,29.1,6.1,39
			c10.4,16.8,25.7,30.2,49.3,25.2c7-1.5,14.7-1,21.9-0.1c13.8,1.8,23.1-4.2,32.8-13.6c10.2-9.9,15.1-19.8,14.1-34.2
			c-1.2-17.2-0.2-34.5-0.3-51.8c-0.1-18.6-22.3-40.5-41.2-40.6c-14.4-0.1-28.9,0-43,0c0-23.3,0-44.1,0-65.1c16.1,0,31.4,0,48.3,0
			c0,14.2,0,27,0,40C122.6,845.3,133.4,845.3,146.2,845.3z M1278.9,767.9c0,22.1,0,42.3,0,63.4c12.1,0,23.2,0,35.1,0
			c0.5-9.2,1-17.3,1.5-25.7c6.2,0,11.5,0,16.8,0c0,56.2,0,111.1,0,165.9c-4.9,1.4-9.2,2.7-13.4,3.9c0,11.6,0,22.5,0,34
			c21.6,0,42.2,0,65,0c-5-14.2,10.6-32.6-12.6-38.5c0-55.9,0-110.7,0-166.6c5.4,0.3,9.8,0.6,14.4,0.8c0.4,9.4,0.8,17.6,1.2,26
			c12.7,0,24,0,35.4,0c0-21.8,0-42.4,0-63.3C1374.1,767.9,1327.1,767.9,1278.9,767.9z M1583.4,768.1c-19.1,0-36.6,0-56.6,0
			c1.2,15.9,5,31,2.8,45.2c-2.4,15.1-10.5,29.2-17.3,46.8c-6.6-18.1-12-32.8-17.2-47.5c-0.8-2.3-1.2-5-0.8-7.3
			c2.2-12.3,4.8-24.5,7.2-36.7c-22.1,0-39.5,0-57.5,0c0,11.8,0,22.1,0,27.6c6.8,9.7,12.6,15.3,15.3,22.1
			c10.1,24.7,21.9,49.1,27.8,74.8c5.5,23.9,4.4,49.4,6.1,74.2c0.1,1.5-0.3,3.8-1.2,4.3c-18.6,10-4.8,25.2-8.9,37.9
			c20.8,0,38.9,0,58.7,0c0-9.1,0.4-17.3-0.2-25.5c-0.3-3.6-2.6-7-4.3-10.4c-2-3.9-6-7.5-6.3-11.5c-2.6-33.7,0.4-66.4,16.3-97.4
			c7.6-14.8,12-31.2,19.1-46.3c3.3-7.1,9.4-12.8,14.2-19.2c0.9,0.6,1.9,1.2,2.8,1.8C1583.4,790.6,1583.4,780.3,1583.4,768.1z
			 M640.5,796.4c6.7,9.4,12.4,15,15.2,21.8c9.9,24.2,21.5,48.2,27.3,73.5c5.6,24.5,4.9,50.4,6.8,75.7c0.1,1.5-0.2,3.9-1.1,4.4
			c-18.6,9.1-4.8,24.6-9.9,37.6c21,0,39.5,0,58.2,0c0-11.9,4.2-29.1-0.8-32.3c-13-8.5-7.7-18.8-8.8-28.6
			c-3.1-28.3,2.9-54.8,15.3-80.4c7.5-15.5,12.4-32.2,19.6-47.9c3.4-7.6,9.3-14,14.1-21c1,0.6,2,1.3,2.9,1.9c0-10.8,0-21.6,0-32.9
			c-18.6,0-36.2,0-56.2,0c5.2,31.7,3.8,61.7-15.2,89.4c-5.6-15.3-11-29.8-16.2-44.5c-0.8-2.3-1.3-5.1-0.8-7.4
			c2.3-12,5-23.9,7.8-37.2c-21.9,0-39.8,0-58.2,0C640.5,780.2,640.5,790.6,640.5,796.4z M163.1,820.2c-0.7,0-1.4-0.1-2.1-0.1
			c0,46,0,92.1,0,138.1c0.7,0,1.4,0,2.1,0C163.1,912.2,163.1,866.2,163.1,820.2z M1316.5,952.4c0.6,0.1,1.2,0.3,1.7,0.4
			c0-34.8,0-69.7,0-105.2c-14.2,0-27.6,0-41,0c6.5,2.1,13.2,2.7,19.8,2c15.2-1.6,20.2,4.9,19.8,19.8
			C1315.8,897,1316.5,924.7,1316.5,952.4z M1384.7,847.7c0,35.6,0,70,0,104.3c0.5,0,0.9,0,1.4,0c0-23,0-45.9,0-68.9
			c0-31.4,0-31.4,30.6-35.4C1406.5,847.7,1396.3,847.7,1384.7,847.7z M310.3,952.2c0.4,0.2,0.9,0.4,1.3,0.7c0-42.4,0-84.8,0-127.2
			c-0.4,0-0.9,0-1.3,0C310.3,867.9,310.3,910.1,310.3,952.2z M797.8,952.3c0.4,0.2,0.8,0.3,1.3,0.5c0-42.6,0-85.2,0-127.8
			c-0.4,0-0.8,0-1.3,0C797.8,867.5,797.8,909.9,797.8,952.3z M1196.1,857c1.3-0.8,2.6-1.5,3.9-2.3c-13-6.6-9.5-17.6-7.6-27.8
			c0.3-1.8,4.6-3,7.1-4.4c2.3,6.2,4.7,12.3,7.1,18.5c0.2,0.6,0.9,1.1,2.1,2.5c0-5.6,0-10.2,0-14.8c-0.1-11.6-11.5-12.6-14.6-8.4
			c-4.7,6.4-4.9,16.8-5.1,25.5C1188.9,849.5,1193.6,853.3,1196.1,857z M235.8,817.8c-1.5,0.1-3,0.3-4.6,0.4c0,9.2-0.5,18.5,0.3,27.7
			c0.3,3.1,4.1,5.9,6.3,8.8c2.4-3.2,6.3-6.2,6.9-9.7c1.1-6.5,0.3-13.3,0.3-20c-0.3,0-0.5,0-0.8,0c-1.2,8.5-2.3,16.9-3.5,25.4
			c-1.7-0.1-3.3-0.2-5-0.4C235.8,839.4,235.8,828.6,235.8,817.8z M1274.2,980.8c0.3,0,0.6,0,1,0c0-26.7,0-53.3,0-80
			c-0.3,0-0.6,0-1,0C1274.2,927.5,1274.2,954.1,1274.2,980.8z M1123.2,797.1c-0.3,0-0.6,0-0.9,0c0,26.4,0,52.9,0,79.3
			c0.3,0,0.6,0,0.9,0C1123.2,849.9,1123.2,823.5,1123.2,797.1z M7.6,874.3c0.4,0,0.8,0,1.3,0c0-24.7,0-49.5,0-74.2
			c-0.4,0-0.8,0-1.3,0C7.6,824.8,7.6,849.5,7.6,874.3z"/>
		<path d="M1609.5,1141.9c-51.5,5.4-103.1,10.8-154.6,16.4c-49.4,5.4-98.9,10.7-148.2,17.1c-7.6,1-16.6,6.2-21.3,12.3
			c-131,167-284.3,308.2-472.8,409c-7.5,4-12.3,3.8-19.6-0.1c-189.1-101.8-343.4-243.4-474.3-412c-3.6-4.6-10.8-8.2-16.7-8.9
			c-72.3-8.5-144.6-16.5-217-24.4c-29.1-3.2-58.3-6.2-87.4-9.2c0-9.4,0-18.9,0-28.3c5.7,0.3,11.5,0.7,17.2,0.7
			c525.8,0,1051.7,0,1577.5,0c5.7,0,11.5-0.5,17.2-0.7C1609.5,1123.1,1609.5,1132.5,1609.5,1141.9z M366.3,1179.4
			c1.9,3.9,2.3,5.5,3.2,6.6c5.6,6.9,11.1,13.9,16.9,20.7c76.5,87.9,159.9,168.9,250.8,241.9c45.8,36.8,93.7,70.5,146.7,96.7
			c13.7,6.8,25.1,7,38-0.5c18.1-10.6,37.3-19.3,54.8-30.7c136.1-89.3,251.3-201.6,356.7-324.6c1.9-2.2,3.3-4.9,5.2-7.8
			c-27.6-3-39.3,0-48.9,9.7c-55.1,55.9-109,113.2-166.1,167c-62.6,59-130.5,111.7-206.7,152.8c-10.1,5.4-18,5.8-27.4-0.3
			c-32.5-21-66.6-39.9-97.7-62.8c-101.3-74.5-190.6-162.1-274.4-255.5c-3.9-4.3-9.3-8.7-14.7-9.8
			C391.4,1180.4,379.8,1180.5,366.3,1179.4z"/>
		<path d="M-2.5,639.2c21.4,0,42.8,0,65.7,0c-3.4-24.6-6.6-48.1-10-71.6c-6.9-48-7.2-48.4,35.7-68.5c144-67.4,294-115.7,451.3-140.4
			c6.7-1,13.3-2.6,21.9-4.4c0,20.2,0,39.9,0,59.6c0,19.4,0.7,38.8-0.1,58.1c-1.8,44.2,19.7,74.2,58.1,92
			c19.2,8.9,40.4,15.5,61.3,18.5c50.9,7.4,93.8,25.9,119.7,73.2c0.4,0.7,1.7,1,2.5,1.4c0.6-0.1,1.3,0,1.5-0.3
			c26.8-48.8,71.1-67.8,123.8-74.6c33.1-4.3,64.2-15.6,89.1-39.6c17.8-17.2,27.1-38.1,27-63.1c-0.1-40.2,0-80.5,0-123.8
			c23.4,3.6,45.5,6.2,67.2,10.5c148.6,29.5,291.7,75.5,427.3,143.8c13.5,6.8,18,15,16.1,29.2c-4.4,32.5-8.2,65.1-12.4,100
			c21.9,0,44.1,0,66.3,0c0,11.5,0,23,0,34.6c-537.3,0-1074.7,0-1612,0C-2.5,662.2-2.5,650.7-2.5,639.2z M1102.2,403.9
			c-4.5,32.8-4.5,32.7,22.9,39c25,5.8,50.1,11.4,74.9,17.9c88.9,23.2,175.2,53.7,259.4,90.5c16.7,7.3,21.6,15.5,17.3,32.7
			c-4.4,17.5-6.3,35.7-9.4,54.4c5.5,0.4,9.7,0.2,13.7,1c15.1,2.7,21.6-3.1,22.9-18.7c1.7-20.3,5-40.5,9-60.5
			c2.6-13.1-1.8-19.3-13.7-24.9c-77.3-36.7-156.8-67.8-239.2-90.9C1208.2,429.8,1155.7,417.5,1102.2,403.9z M138.8,639.2
			c-3.5-21.5-5.7-41.3-10.2-60.5c-3.4-14.2,1.3-20.4,14.4-25.4c50.9-19.3,100.6-42.3,152.4-58.8c64.8-20.7,131.1-36.6,196.9-53.9
			c9.7-2.5,15-5.5,13.4-16.3c-0.8-5.5-0.1-11.2-0.1-18.1c-6.6,1-11.2,1.3-15.6,2.4c-58.9,15-118.9,26.7-176.2,46.1
			c-71.3,24.1-140.4,54.6-210.3,82.9c-4.8,1.9-10.9,9.5-10.4,13.8c2.7,26,6.7,51.8,11.4,77.5c0.7,4,7.4,8.6,12,9.8
			C123.3,640.4,130.8,639.2,138.8,639.2z"/>
		<path class="st0" d="M-2.5,673.7c537.3,0,1074.7,0,1612,0c0,12.6,0,25.1,0,37.7c-6.8,0.3-13.6,0.9-20.4,0.9
			c-523.8,0-1047.5,0-1571.3,0c-6.8,0-13.6-0.6-20.4-0.9C-2.5,698.9-2.5,686.3-2.5,673.7z"/>
		<path class="st0" d="M1609.5,1113.7c-5.7,0.3-11.5,0.7-17.2,0.7c-525.8,0-1051.7,0-1577.5,0c-5.7,0-11.5-0.5-17.2-0.7
			c0-12.6,0-25.1,0-37.7c8.4-0.1,16.8-0.3,25.2-0.3c523.7,0,1047.4,0,1571.1,0c5.2,0,10.5,0.2,15.7,0.3
			C1609.5,1088.5,1609.5,1101.1,1609.5,1113.7z"/>
		<path class="st0" d="M1609.5,1072.8c-1-6.6-2.9-13.2-3-19.9c-0.2-106.2-0.2-212.3,0-318.5c0-6.6,1.9-13.2,3-19.9
			C1609.5,834,1609.5,953.4,1609.5,1072.8z"/>
		<path class="st0" d="M-2.5,714.6c1,6.6,2.9,13.2,3,19.9c0.2,106.2,0.2,212.3,0,318.5c0,6.6-1.9,13.2-3,19.9
			C-2.5,953.4-2.5,834-2.5,714.6z"/>
		<path d="M803.1,35.1c78,84.3,128.5,97.6,226.2,57.6c0,5.1,0,9.6,0,14c0,122-0.3,244,0.2,366c0.1,33.5-13.9,58.5-42.9,72.7
			c-20.4,10-42.9,17.1-65.3,21.1c-46.2,8.4-88.5,22.3-117.9,64.6c-30.8-45.2-77-57-126.1-66.2c-24.5-4.6-48.6-16-70.6-28.4
			c-18.9-10.6-29-30.4-29.1-52.9c-0.3-129.8-0.1-259.7-0.1-391.1C670.1,139.2,742,108.4,803.1,35.1z M753.9,250.5l-0.3-0.3
			c12.9-1.3,26.5-0.3,38.6-4.2c56.7-18.2,84.8-71.1,67.5-125.9c-1.6-5-8.2-8.4-12.5-12.6l0.4,0.4c-2.7-1.1-5.3-3.2-8-3.3
			c-67.5-0.7-119.4,77.9-91.7,138.9C749,246.2,751.9,248.2,753.9,250.5z M602.8,277.2c0,6.5,0,12.1,0,17.6
			c0,57.6,1.4,115.2-0.5,172.7c-1.1,32.6,14,51.2,41.6,62.7c10.1,4.2,20.7,8,31.4,9.8c46.8,8.1,92.4,18.8,128,53.5
			c33-31.2,72.6-42.9,114.4-51.1c19.8-3.9,39.4-10.6,57.7-19.1c19.4-9,28.5-25.6,28.2-48.3c-0.9-60.2-0.3-120.4-0.3-180.5
			c0-5.5-0.5-11.1-0.8-17.2C869.4,277.2,737.9,277.2,602.8,277.2z M902.5,174.3c5.4,3.2,10.6,6.2,19.6,11.4
			c-9.3-16.2-4.4-26,7.5-34.7c-15.7,2.8-22.6-5.4-27.2-18.5c-2.4,15.7-12.9,19.2-26.7,19.5c14.8,7.2,15.3,18.5,9.4,33.7
			C892.8,180.5,897.6,177.4,902.5,174.3z M979.3,136.2c-1.4,11.6-10.3,16.4-24.6,15c12.2,8.5,16.5,18.5,7.7,34.5
			c8.9-5.2,14.1-8.3,19-11.2c5.5,3.1,10.6,6,15.7,8.9c-7.3-14.7,1-23.5,7.9-29C996.2,148.1,988,142.3,979.3,136.2z M675.8,222.6
			c17.8,6.6,14.3,19.1,11.9,32.2c11.2-12.5,21.5-8.5,34.1,0.1c-11.5-15.4-2.3-23.9,8.5-32.8c-15.5,2.4-22.9-5.1-26.5-23.8
			C699.7,216.3,692.8,224.4,675.8,222.6z M598.6,222.3c13.9,7.9,15.1,18.9,10.3,32.6c11.4-12.2,22.1-8.8,33.8-0.6
			c-8.2-14.4-1.6-23.8,9.2-32.7c-16.1,3.4-22.4-5.5-26.9-23.3C621.8,217,614,224,598.6,222.3z M953.9,222.4
			c19.4,6.3,13,19.6,10.5,33c7.2-4.6,12.3-7.8,17-10.8c5.9,3.5,10.9,6.4,15.9,9.3c-7.2-14.7,0.6-23.7,10.5-32.9
			c-16.7,4.4-21.5-6.8-27.4-21.5C977.8,217.3,970,223.6,953.9,222.4z M918.3,254c-7.5-14.4-0.5-23.6,11.6-33.1
			c-17.5,4.9-22.5-6-27.6-21.3c-3.1,16.8-10.7,24.1-26.3,22.1c12.9,8.3,16.4,18.5,7.4,34.6c8.9-5.4,14.1-8.5,19.4-11.8
			C908,247.7,913.1,250.8,918.3,254z M624.5,132.2c-0.4,19.1-13.6,18.8-27.4,21.2c19.2,5.4,14.3,18.4,11.1,31.9
			c7.3-4.4,12.5-7.6,17.3-10.4c5.6,3.4,10.3,6.3,15.1,9.2c-7.7-14.8,0.1-23.6,11.9-32C637.4,153.4,628.6,147.8,624.5,132.2z
			 M730.7,151.2c-17.6,5.3-22.1-6.5-28.4-19.1c-0.2,18.1-12.2,19.5-29.8,19.7c18,8.2,20.2,18.5,12.7,33.6
			c8.3-4.7,13.5-7.7,18.5-10.5c5.5,3.2,10.5,6.1,15.5,9C713,169.2,718.1,160.1,730.7,151.2z"/>
		<path class="st0" d="M852,970.9c14,5.2,15.8,11.4,10.4,38.6c-20,0-40.2,0-60.4,0c-6.4-24.5-4-33.6,11.3-38.5
			c0-52.4,0.3-105.1-0.5-157.9c-0.1-4.5-6.7-8.9-12.5-16.2c0-6.5,0-17.3,0-29.8c14.3,0,27.9-1,41.2,0.6c4.4,0.5,9.6,6.9,11.8,11.9
			c14,32.1,27.3,64.5,40.8,96.8c1.5,3.6,3.1,7.3,6.6,10.4c0-26.8,0-53.6,0-80.4c-24.1-6-8-24.6-14.3-38c23,0,43.6,0,64.2,0
			c5.7,25.6,3.7,32.8-10.8,38.3c0,54.7,0,109.6,0,164.4c24.6,5.7,7.8,24.6,15.2,39.1c-17.1,0-31,0.7-44.8-0.5
			c-3.5-0.3-7.5-6.4-9.4-10.7c-15.9-35.8-31.5-71.8-48.9-111.8C852,917.9,852,944.3,852,970.9z"/>
		<path class="st0" d="M164.2,1009.1c5.7-13.5-10-31.5,14.1-38c0-54.7,0-109.5,0-165.1c-3.7-1.2-7.5-2.5-12.2-4
			c0-10.6,0-21.3,0-33.4c20.9,0,41.5,0,63.4,0c0,10.3,0,21,0,33.1c-12.5,1-13.4,10.1-12.8,21.3c0.8,15.1,0.2,30.2,0.2,46.4
			c14.1,0,26.8,0,40.7,0c0-20.8,0-41.4,0-63.1c-24.8-5.2-7.5-24.3-14.4-38c23.6,0,43.8,0,65.4,0c0,10.5,0,21.2,0,33.4
			c-2.8,1.1-7,2.7-11.8,4.5c0,54.6,0,109.4,0,165.3c3.9,1.2,8,2.6,12.3,4c0,11.5,0,22.3,0,34.1c-21.4,0-42,0-63.5,0
			c0-11.7,0-22.5,0-34.2c4.1-1.2,8.3-2.4,12.2-3.5c0-21.5,0-42.3,0-63.7c-13.7,0-26.5,0-40.1,0c0,21.1,0,41.4,0,62.6
			c23.6,5.3,9,24.1,14,38.5C209.1,1009.1,188.4,1009.1,164.2,1009.1z"/>
		<path class="st0" d="M506.4,971.3c0-55.6,0-110,0-164.3c-15.1-6.2-16.8-12-11.2-39.7c34.1,0,68.7-0.4,103.1,0.2
			c10.5,0.2,32.5,25.5,32.5,36.1c0.1,57.1,0.1,114.1,0,171.2c0,10.7-22.6,35.4-33.2,35.5c-34,0.5-68.1,0.2-101.8,0.2
			C488.7,985.5,491.2,976,506.4,971.3z M592.9,972.4c0-57,0-112.2,0-167c-17,0-32.8,0-48.1,0c0,56.5,0,111.5,0,167
			C561.5,972.4,577,972.4,592.9,972.4z"/>
		<path class="st0" d="M382.1,948.2c2.8,20.9,5.5,40.3,8.3,61.1c-21.7,0-40.7,0-60.7,0c0-11.6,0-22.4,0-33.1
			c1.3,0.6,2.6,1.2,3.9,1.8c3.7-6.6,9.3-12.8,10.7-19.8c11.7-58,22.7-116.1,33.9-174.1c1-5.1,2.2-10.2,3.2-14.8
			c1.6-0.8,2.5-1.6,3.5-1.7c34.3-2.5,34.2-2.4,40.8,30.7c10.7,53.4,21.2,106.8,32.6,160c1.5,6.9,7.3,12.8,11,19.2
			c1.5-0.7,3-1.3,4.6-2c0,10.9,0,21.7,0,33.7c-19.5,0-38.5,0-59.6,0c3.5-12.9-6.3-25.9,6.4-38.2c3.3-3.2-1.2-14.6-2.2-22.9
			C407.1,948.2,396.8,948.2,382.1,948.2z M402.8,859.9c-0.8,0-1.6-0.1-2.4-0.1c-2.9,16.7-5.9,33.3-9,51c7.1,0,13,0,20.1,0
			C408.4,893.1,405.6,876.5,402.8,859.9z"/>
		<path class="st0" d="M1118,976.9c0,10.4,0,20.7,0,32.3c-19.5,0-38.6,0-59.4,0c2.5-13.3-6.1-26.7,6.4-39.3
			c3.1-3.1-1.5-13.7-2.7-21.6c-11.1,0-21.3,0-32.4,0c-2.3,9.9-7.2,18.5,2.2,29.9c5.1,6.2,0.9,19.9,0.9,31.2c-19.9,0-38.6,0-58.6,0
			c0-11,0-22.1,0-33.3c1.1,0.6,2.2,1.2,3.3,1.8c3.7-6.6,9.3-12.8,10.8-19.8c11.9-58.9,23.6-117.9,34-177.1
			c2.3-13.1,8.5-14.7,19-13.9c10.7,0.8,21.9-3.8,25.1,14.3c10.7,59.1,23.3,117.9,35.8,176.7c1.5,6.9,7.2,13,10.9,19.4
			C1114.9,977.3,1116.4,977.1,1118,976.9z M1055.7,911.2c-3.2-18.2-6.1-34.8-9.1-51.3c-0.9,0.1-1.8,0.1-2.7,0.2
			c-2.7,16.8-5.4,33.6-8.2,51.1C1043.2,911.2,1048.2,911.2,1055.7,911.2z"/>
		<path class="st0" d="M1259.9,845.3c-12.8,0-23.7,0-36.7,0c0-13.2,0-26.4,0-40.4c-17.1,0-32.1,0-47.7,0c0,21.7,0,42.4,0,65.6
			c15.1,0,30.1-0.1,45.1,0c16.3,0.2,39.2,23.2,39.3,39.5c0.1,18.3-0.8,36.7,0.3,54.9c0.7,12.6-3.8,21.1-12.3,30.2
			c-10.9,11.8-22.4,17.9-38.4,15.4c-4.6-0.7-9.5-0.8-14.1,0c-39.9,6.6-66.2-25.1-56.8-64.2c11.4,0,23,0,35.5,0
			c0.5,8.8,0.9,17,1.4,25.9c15.7,0,30.5,0,46.2,0c0-21.6,0-42.3,0-65.1c-15.7,0-31.3,0.2-46.8,0c-15.1-0.2-37.4-22.5-37.5-37.5
			c-0.2-19.3,0.7-38.7-0.3-58c-0.6-12.1,4.1-19.9,11.8-28.8c11.1-12.9,23.5-17.7,39.8-15.8c7.2,0.8,14.9,1.3,21.9-0.1
			c23.9-4.8,34.2,13.5,47.3,26.9c1.5,1.6,1.8,4.8,1.9,7.3C1260,815.2,1259.9,829.3,1259.9,845.3z"/>
		<path class="st0" d="M146.2,845.3c-12.8,0-23.5,0-35.9,0c0-13,0-25.8,0-40c-16.9,0-32.2,0-48.3,0c0,21,0,41.8,0,65.1
			c14.2,0,28.6-0.1,43,0c18.9,0.1,41.1,22.1,41.2,40.6c0.1,17.3-0.9,34.6,0.3,51.8c1,14.4-3.8,24.3-14.1,34.2
			c-9.7,9.4-19,15.4-32.8,13.6c-7.2-0.9-14.9-1.4-21.9,0.1c-23.6,5-38.9-8.3-49.3-25.2c-6.1-9.9-4.2-24.7-6.1-39
			c14.2,0,25.8,0,38.5,0c0,8.3,0,16.1,0,25.2c16.3,0,31.5,0,47.8,0c0-20.8,0-41.5,0-64.6c-14.1,0-28,0-41.9,0
			c-21.9,0-42.6-20.4-42.7-41.9c0-14.1,1.8-28.5-0.4-42.3c-3.7-22.9,7-37.8,23.3-50.7c3.1-2.4,7.2-4.8,10.9-4.9
			c18.3-0.5,38-4.3,54.6,1.1c13.3,4.3,26.8,18.5,32.6,31.6C150.5,812.6,146.2,829.5,146.2,845.3z"/>
		<path class="st0" d="M1278.9,767.9c48.2,0,95.2,0,143.5,0c0,20.9,0,41.5,0,63.3c-11.5,0-22.7,0-35.4,0c-0.4-8.4-0.8-16.6-1.2-26
			c-4.6-0.3-9-0.5-14.4-0.8c0,55.9,0,110.6,0,166.6c23.3,5.9,7.7,24.3,12.6,38.5c-22.8,0-43.4,0-65,0c0-11.5,0-22.3,0-34
			c4.1-1.2,8.4-2.5,13.4-3.9c0-54.9,0-109.7,0-165.9c-5.3,0-10.6,0-16.8,0c-0.5,8.4-0.9,16.5-1.5,25.7c-11.9,0-23.1,0-35.1,0
			C1278.9,810.2,1278.9,790,1278.9,767.9z"/>
		<path class="st0" d="M1583.4,768.1c0,12.2,0,22.6,0,32.9c-0.9-0.6-1.9-1.2-2.8-1.8c-4.8,6.3-11,12.1-14.2,19.2
			c-7.1,15.1-11.5,31.5-19.1,46.3c-15.9,30.9-18.9,63.6-16.3,97.4c0.3,4,4.3,7.6,6.3,11.5c1.7,3.3,4,6.8,4.3,10.4
			c0.6,8.2,0.2,16.5,0.2,25.5c-19.7,0-37.9,0-58.7,0c4.1-12.7-9.7-27.9,8.9-37.9c0.9-0.5,1.3-2.9,1.2-4.3
			c-1.7-24.8-0.6-50.3-6.1-74.2c-5.9-25.7-17.7-50.2-27.8-74.8c-2.8-6.8-8.5-12.5-15.3-22.1c0-5.5,0-15.8,0-27.6c18,0,35.5,0,57.5,0
			c-2.4,12.2-5,24.4-7.2,36.7c-0.4,2.3,0,5,0.8,7.3c5.2,14.7,10.6,29.3,17.2,47.5c6.8-17.6,14.9-31.7,17.3-46.8
			c2.2-14.2-1.6-29.3-2.8-45.2C1546.8,768.1,1564.3,768.1,1583.4,768.1z"/>
		<path class="st0" d="M640.5,796.4c0-5.8,0-16.2,0-27.9c18.4,0,36.3,0,58.2,0c-2.8,13.3-5.5,25.2-7.8,37.2c-0.5,2.3,0,5.1,0.8,7.4
			c5.2,14.6,10.6,29.2,16.2,44.5c19-27.7,20.4-57.6,15.2-89.4c20,0,37.6,0,56.2,0c0,11.3,0,22.1,0,32.9c-1-0.6-2-1.3-2.9-1.9
			c-4.8,7-10.7,13.4-14.1,21c-7.2,15.7-12.1,32.4-19.6,47.9c-12.4,25.6-18.4,52.1-15.3,80.4c1.1,9.7-4.2,20.1,8.8,28.6
			c5,3.2,0.8,20.4,0.8,32.3c-18.7,0-37.2,0-58.2,0c5.2-13-8.7-28.5,9.9-37.6c0.9-0.4,1.2-2.9,1.1-4.4c-1.9-25.3-1.2-51.2-6.8-75.7
			c-5.8-25.3-17.4-49.3-27.3-73.5C653,811.4,647.2,805.8,640.5,796.4z"/>
		<path class="st0" d="M163.1,820.2c0,46,0,92,0,138c-0.7,0-1.4,0-2.1,0c0-46,0-92.1,0-138.1C161.7,820.1,162.4,820.1,163.1,820.2z"
			/>
		<path class="st0" d="M1316.5,952.4c0-27.7-0.6-55.4,0.3-83c0.5-14.9-4.5-21.4-19.8-19.8c-6.6,0.7-13.3,0.1-19.8-2
			c13.4,0,26.8,0,41,0c0,35.6,0,70.4,0,105.2C1317.6,952.7,1317.1,952.5,1316.5,952.4z"/>
		<path class="st0" d="M1384.7,847.7c11.7,0,21.8,0,32,0c-30.6,4.1-30.6,4.1-30.6,35.4c0,23,0,45.9,0,68.9c-0.5,0-0.9,0-1.4,0
			C1384.7,917.7,1384.7,883.4,1384.7,847.7z"/>
		<path class="st0" d="M310.3,952.2c0-42.2,0-84.4,0-126.5c0.4,0,0.9,0,1.3,0c0,42.4,0,84.8,0,127.2
			C311.1,952.7,310.7,952.5,310.3,952.2z"/>
		<path class="st0" d="M797.8,952.3c0-42.4,0-84.9,0-127.3c0.4,0,0.8,0,1.3,0c0,42.6,0,85.2,0,127.8
			C798.6,952.7,798.2,952.5,797.8,952.3z"/>
		<path class="st0" d="M1196.1,857c-2.5-3.8-7.2-7.6-7.1-11.3c0.2-8.7,0.4-19.1,5.1-25.5c3.1-4.2,14.5-3.2,14.6,8.4
			c0,4.6,0,9.3,0,14.8c-1.2-1.4-1.9-1.9-2.1-2.5c-2.4-6.1-4.7-12.3-7.1-18.5c-2.5,1.5-6.8,2.6-7.1,4.4c-1.8,10.1-5.4,21.1,7.6,27.8
			C1198.7,855.5,1197.4,856.3,1196.1,857z"/>
		<path class="st0" d="M235.8,817.8c0,10.8,0,21.5,0,32.3c1.7,0.1,3.3,0.2,5,0.4c1.2-8.5,2.3-16.9,3.5-25.4c0.3,0,0.5,0,0.8,0
			c0,6.7,0.8,13.5-0.3,20c-0.6,3.5-4.5,6.5-6.9,9.7c-2.2-2.9-6-5.7-6.3-8.8c-0.8-9.2-0.3-18.5-0.3-27.7
			C232.8,818.1,234.3,818,235.8,817.8z"/>
		<ellipse class="st0" cx="1274.7" cy="940.8" rx="0.7" ry="56.6"/>
		<ellipse class="st0" cx="1122.8" cy="836.7" rx="0.7" ry="56.1"/>
		<ellipse class="st0" cx="8.2" cy="837.2" rx="0.9" ry="52.5"/>
		<path class="st0" d="M366.3,1179.4c13.5,1,25.1,1,36.2,3.2c5.4,1.1,10.9,5.5,14.7,9.8c83.8,93.4,173,181.1,274.4,255.5
			c31.1,22.9,65.2,41.8,97.7,62.8c9.4,6.1,17.4,5.7,27.4,0.3c76.3-41.1,144.1-93.8,206.7-152.8c57.1-53.8,111-111.1,166.1-167
			c9.6-9.7,21.3-12.7,48.9-9.7c-1.9,3-3.3,5.6-5.2,7.8c-105.4,123-220.6,235.3-356.7,324.6c-17.5,11.5-36.7,20.2-54.8,30.7
			c-12.9,7.5-24.3,7.3-38,0.5c-53-26.2-100.9-59.9-146.7-96.7c-90.9-73-174.2-154-250.8-241.9c-5.8-6.7-11.3-13.7-16.9-20.7
			C368.6,1184.9,368.2,1183.4,366.3,1179.4z"/>
		<path class="st0" d="M1102.2,403.9c53.6,13.7,106,26,157.8,40.5c82.4,23.1,161.9,54.2,239.2,90.9c11.8,5.6,16.3,11.8,13.7,24.9
			c-4,20-7.3,40.2-9,60.5c-1.3,15.6-7.8,21.4-22.9,18.7c-4-0.7-8.2-0.6-13.7-1c3.1-18.7,5.1-36.8,9.4-54.4
			c4.3-17.2-0.7-25.4-17.3-32.7c-84.2-36.8-170.5-67.3-259.4-90.5c-24.8-6.5-49.9-12.1-74.9-17.9
			C1097.7,436.5,1097.7,436.7,1102.2,403.9z"/>
		<path class="st0" d="M138.8,639.2c-8.1,0-15.6,1.2-22.4-0.4c-4.7-1.1-11.3-5.8-12-9.8c-4.8-25.7-8.7-51.6-11.4-77.5
			c-0.4-4.3,5.7-11.9,10.4-13.8c69.8-28.3,139-58.8,210.3-82.9c57.4-19.4,117.4-31.1,176.2-46.1c4.4-1.1,9-1.4,15.6-2.4
			c0,6.9-0.6,12.6,0.1,18.1c1.5,10.8-3.8,13.8-13.4,16.3c-65.8,17.3-132.1,33.2-196.9,53.9c-51.8,16.5-101.5,39.5-152.4,58.8
			c-13,4.9-17.7,11.2-14.4,25.4C133.1,597.9,135.3,617.7,138.8,639.2z"/>
		<path class="st0" d="M602.8,277.2c135.1,0,266.6,0,399.7,0c0.3,6.1,0.8,11.7,0.8,17.2c0.1,60.2-0.5,120.4,0.3,180.5
			c0.3,22.7-8.8,39.3-28.2,48.3c-18.3,8.5-38,15.2-57.7,19.1c-41.8,8.2-81.5,19.9-114.4,51.1c-35.5-34.7-81.2-45.4-128-53.5
			c-10.7-1.9-21.3-5.6-31.4-9.8c-27.7-11.5-42.7-30.1-41.6-62.7c1.9-57.5,0.5-115.1,0.5-172.7C602.8,289.2,602.8,283.6,602.8,277.2z
			 M757.4,303.6c1.7,9.8,2.7,18.6,4.9,27c1.2,4.6,6.8,8.5,6.9,12.8c0.5,40.8,0.4,81.5,0.3,122.3c0,3.5,0,9.6-1.6,10.2
			c-17.4,6.7-6.7,19.5-8.4,29.9c17.9,0,34.4,0,52.6,0c-3.8-11.1,6.5-25.3-11.5-30.3c-0.7-0.2-1.2-2.8-1.2-4.3
			c-0.1-17-0.1-34-0.1-52.6c14.6,0,26.9,0,39.2,0c0-10.2,0-18.8,0-29.1c-13.3,0-25.6,0-38.1,0c0-20.3,0-38.7,0-57.5
			c11,0,20.6,0,30.9,0c0.7,8.1,1.3,15.1,1.9,22.5c9.4,0,18,0,26.6,0c0-17.5,0-34,0-51C825.9,303.6,793.1,303.6,757.4,303.6z
			 M711.5,354.5c10.1,0,18.7,0,27.2,0c0-17.6,0-34.1,0-50.6c-34.3,0-67.6,0-103.7,0c2.3,10,3.8,18.7,6.3,26.9
			c1.4,4.6,6.6,8.7,6.6,13.1c0.5,40.3,0.3,80.6,0.2,120.9c0,3.6,0.1,9.6-1.5,10.3c-16.5,6.6-7.5,19.6-9.3,30.4c18.1,0,35,0,52.9,0
			c-3.6-10.8,7.1-24.9-10.7-29.3c-0.9-0.2-1.8-2.6-1.8-4c-0.1-17.5-0.1-35.1-0.1-54.2c15.1,0,27.4,0,39.6,0c0-9.9,0-18.1,0-27
			c-13.5-0.7-26.2-1.4-38.7-2c0-20.1,0-38.2,0-56.9c11.1,0,21.1,0,31.6,0C710.6,340.3,711,347,711.5,354.5z M877.8,302.5
			c2.2,10.8,3.5,19.5,6,27.8c1.4,4.5,7,8.4,7.1,12.7c0.6,40.8,0.4,81.6,0.3,122.3c0,3.5-0.1,9.6-1.7,10.2
			c-17.1,6.4-7.2,19.5-9.4,30.5c34.6,0,67.8,0,101.8,0c0-17.4,0-33.8,0-51.1c-9.3,0-17.9,0-26.4,0c-3.5,25.9-5.5,27.2-35,20.6
			c0-45.4,0-91.3,0.1-137.1c0-2,0.6-5.4,1.6-5.7c19.3-5.6,7.6-19.5,9.9-30.2C914.1,302.5,898,302.5,877.8,302.5z"/>
		<path class="st0" d="M847.1,107.5c4.3,4.2,11,7.6,12.5,12.6c17.3,54.8-10.8,107.7-67.5,125.9c-12.1,3.9-25.7,2.9-38.6,4.2
			c6.1-16.1,11.4-32.6,18.6-48.2c3-6.5,9.7-11.3,16.4-18.6c-4.9-2.3-13.1-6.2-20.1-9.5c-0.9,9-1,15.6-2.3,22
			c-3.8,18.3-8.1,36.4-12.2,54.6c-2.1-2.3-4.9-4.2-6.1-6.9c-27.7-61.1,24.2-139.7,91.7-138.9c2.7,0,5.3,2.1,8,3.3
			c-11.1,5.3-22.1,10.6-34,16.3c6.8,3.6,13.6,7.2,17.4,9.2c3.7-7.1,6.1-12.1,9-16.7C841.9,113.3,844.7,110.5,847.1,107.5z"/>
		<path class="st0" d="M902.5,174.3c-4.9,3.2-9.6,6.3-17.5,11.5c5.9-15.2,5.4-26.5-9.4-33.7c13.8-0.3,24.3-3.8,26.7-19.5
			c4.6,13.2,11.6,21.3,27.2,18.5c-11.9,8.7-16.8,18.5-7.5,34.7C913,180.4,907.9,177.4,902.5,174.3z"/>
		<path class="st0" d="M979.3,136.2c8.7,6.2,16.9,12,25.7,18.2c-6.9,5.5-15.2,14.3-7.9,29c-5.1-2.9-10.2-5.8-15.7-8.9
			c-5,2.9-10.1,6-19,11.2c8.8-16,4.5-26-7.7-34.5C969,152.5,977.9,147.8,979.3,136.2z"/>
		<path class="st0" d="M675.8,222.6c16.9,1.9,23.9-6.3,27.9-24.4c3.7,18.7,11,26.1,26.5,23.8c-10.7,8.9-19.9,17.4-8.5,32.8
			c-12.5-8.6-22.9-12.6-34.1-0.1C690.1,241.7,693.6,229.2,675.8,222.6z"/>
		<path class="st0" d="M598.6,222.3c15.4,1.7,23.2-5.3,26.4-24c4.5,17.8,10.9,26.7,26.9,23.3c-10.9,8.9-17.4,18.3-9.2,32.7
			c-11.7-8.1-22.4-11.6-33.8,0.6C613.7,241.2,612.5,230.2,598.6,222.3z"/>
		<path class="st0" d="M953.9,222.4c16.1,1.2,23.9-5.1,26.4-22.9c5.9,14.7,10.8,25.9,27.4,21.5c-9.9,9.2-17.7,18.2-10.5,32.9
			c-5-2.9-10-5.8-15.9-9.3c-4.7,3-9.8,6.2-17,10.8C966.9,242,973.3,228.7,953.9,222.4z"/>
		<path class="st0" d="M918.3,254c-5.2-3.1-10.3-6.2-15.5-9.4c-5.3,3.2-10.4,6.3-19.4,11.8c9-16.1,5.5-26.3-7.4-34.6
			c15.6,2,23.2-5.3,26.3-22.1c5.1,15.2,10.1,26.1,27.6,21.3C917.8,230.4,910.8,239.6,918.3,254z"/>
		<path class="st0" d="M624.5,132.2c4.1,15.7,12.9,21.2,27.9,19.8c-11.7,8.4-19.5,17.2-11.9,32c-4.7-2.9-9.5-5.7-15.1-9.2
			c-4.8,2.9-9.9,6-17.3,10.4c3.2-13.5,8.1-26.5-11.1-31.9C610.9,151,624.2,151.3,624.5,132.2z"/>
		<path class="st0" d="M730.7,151.2c-12.6,8.9-17.7,18-11.5,32.7c-5-2.9-10-5.8-15.5-9c-5,2.8-10.2,5.8-18.5,10.5
			c7.5-15.2,5.4-25.4-12.7-33.6c17.6-0.2,29.5-1.6,29.8-19.7C708.6,144.7,713,156.5,730.7,151.2z"/>
		<path d="M592.9,972.4c-15.9,0-31.4,0-48.1,0c0-55.4,0-110.5,0-167c15.3,0,31.1,0,48.1,0C592.9,860.2,592.9,915.3,592.9,972.4z
			 M579.3,890.6c0-19.9,0.6-39.7-0.5-59.5c-0.2-4.2-6.5-8.1-9.9-12.1c-3.5,4-9.9,7.9-10,12c-0.8,38.6-0.8,77.3,0,116
			c0.1,4,6.5,7.9,10,11.9c3.5-4,9.7-7.7,10-11.9C580,928.2,579.3,909.4,579.3,890.6z"/>
		<path d="M402.8,859.9c2.8,16.6,5.7,33.2,8.7,50.9c-7.2,0-13.1,0-20.1,0c3.1-17.7,6.1-34.3,9-51C401.1,859.8,402,859.9,402.8,859.9
			z"/>
		<path d="M1055.7,911.2c-7.5,0-12.5,0-20,0c2.8-17.6,5.5-34.3,8.2-51.1c0.9-0.1,1.8-0.1,2.7-0.2
			C1049.5,876.4,1052.5,893,1055.7,911.2z"/>
		<path d="M757.4,303.6c35.8,0,68.5,0,102.4,0c0,17,0,33.4,0,51c-8.6,0-17.2,0-26.6,0c-0.6-7.4-1.2-14.4-1.9-22.5
			c-10.3,0-19.9,0-30.9,0c0,18.8,0,37.3,0,57.5c12.4,0,24.7,0,38.1,0c0,10.3,0,18.9,0,29.1c-12.3,0-24.6,0-39.2,0
			c0,18.6,0,35.6,0.1,52.6c0,1.5,0.4,4.1,1.2,4.3c18,5,7.7,19.2,11.5,30.3c-18.2,0-34.7,0-52.6,0c1.7-10.4-8.9-23.1,8.4-29.9
			c1.6-0.6,1.6-6.7,1.6-10.2c0.1-40.8,0.3-81.6-0.3-122.3c-0.1-4.3-5.6-8.2-6.9-12.8C760,322.2,759.1,313.5,757.4,303.6z"/>
		<path d="M711.5,354.5c-0.5-7.5-0.9-14.2-1.4-22.2c-10.5,0-20.5,0-31.6,0c0,18.6,0,36.7,0,56.9c12.5,0.6,25.2,1.3,38.7,2
			c0,8.9,0,17.1,0,27c-12.2,0-24.5,0-39.6,0c0,19.1,0,36.6,0.1,54.2c0,1.4,0.9,3.8,1.8,4c17.9,4.4,7.1,18.5,10.7,29.3
			c-18,0-34.8,0-52.9,0c1.8-10.8-7.2-23.7,9.3-30.4c1.7-0.7,1.5-6.7,1.5-10.3c0.1-40.3,0.3-80.6-0.2-120.9
			c-0.1-4.4-5.2-8.5-6.6-13.1c-2.5-8.3-4-16.9-6.3-26.9c36.1,0,69.4,0,103.7,0c0,16.4,0,32.9,0,50.6
			C730.2,354.5,721.6,354.5,711.5,354.5z"/>
		<path d="M877.8,302.5c20.2,0,36.3,0,54.1,0c-2.3,10.6,9.4,24.5-9.9,30.2c-1,0.3-1.6,3.7-1.6,5.7c-0.1,45.8-0.1,91.7-0.1,137.1
			c29.5,6.5,31.5,5.3,35-20.6c8.5,0,17,0,26.4,0c0,17.3,0,33.7,0,51.1c-33.9,0-67.1,0-101.8,0c2.3-11-7.7-24.1,9.4-30.5
			c1.6-0.6,1.7-6.7,1.7-10.2c0.1-40.8,0.3-81.6-0.3-122.3c-0.1-4.2-5.7-8.1-7.1-12.7C881.3,322,880.1,313.3,877.8,302.5z"/>
		<path d="M753.9,250.5c4.1-18.2,8.4-36.4,12.2-54.6c1.3-6.3,1.4-12.9,2.3-22c7.1,3.3,15.2,7.2,20.1,9.5
			c-6.7,7.3-13.4,12.1-16.4,18.6c-7.1,15.6-12.5,32.1-18.6,48.2C753.7,250.2,753.9,250.5,753.9,250.5z"/>
		<path d="M847.1,107.5c-2.5,3-5.3,5.8-7.3,9.1c-2.9,4.7-5.2,9.7-9,16.7c-3.8-2-10.6-5.6-17.4-9.2c11.9-5.7,23-11,34-16.3
			C847.5,107.9,847.1,107.5,847.1,107.5z"/>
		<path class="st0" d="M579.3,890.6c0,18.8,0.6,37.6-0.5,56.4c-0.2,4.1-6.5,7.9-10,11.9c-3.5-4-9.9-7.9-10-11.9
			c-0.8-38.6-0.8-77.3,0-116c0.1-4.1,6.5-8,10-12c3.5,4,9.7,7.9,9.9,12.1C579.9,850.9,579.3,870.7,579.3,890.6z M561.2,889.2
			c0,18.3-0.4,36.7,0.4,55c0.2,3.9,4.9,7.6,7.6,11.3c2.5-3.9,7.2-7.8,7.3-11.7c0.6-36.6,0.6-73.3,0-109.9c-0.1-3.8-5-7.6-7.6-11.3
			c-2.5,3.9-7.1,7.7-7.2,11.8C560.7,852.5,561.2,870.8,561.2,889.2z"/>
		<path d="M561.2,889.2c0-18.3-0.4-36.7,0.3-55c0.2-4,4.7-7.8,7.2-11.8c2.7,3.8,7.6,7.5,7.6,11.3c0.6,36.6,0.6,73.3,0,109.9
			c-0.1,3.9-4.7,7.8-7.3,11.7c-2.7-3.8-7.4-7.4-7.6-11.3C560.7,925.8,561.2,907.5,561.2,889.2z"/>
	</g>
</g>
</svg>
